<svg width="129" height="18" viewBox="0 0 129 18" fill="none" xmlns="http://www.w3.org/2000/svg">
<g clip-path="url(#clip0_12930_128359)">
<path d="M8.43156 2.61388L10.231 6.43238L14.2545 7.04577C14.3433 7.05919 14.4268 7.09842 14.4955 7.159C14.5642 7.21959 14.6153 7.29911 14.6431 7.38856C14.6708 7.47802 14.6741 7.57383 14.6526 7.66514C14.6311 7.75646 14.5855 7.83963 14.5212 7.90523L11.6092 10.8752L12.2965 15.0731C12.3117 15.1658 12.3018 15.2611 12.2679 15.3483C12.2341 15.4354 12.1777 15.5109 12.105 15.5662C12.0324 15.6215 11.9464 15.6544 11.8568 15.6612C11.7673 15.668 11.6777 15.6484 11.5982 15.6047L7.99993 13.6257L4.40112 15.6065C4.32155 15.65 4.23196 15.6695 4.14242 15.6625C4.05289 15.6556 3.96698 15.6226 3.89439 15.5673C3.82179 15.512 3.76538 15.4365 3.73152 15.3494C3.69767 15.2623 3.68771 15.167 3.70277 15.0743L4.39013 10.8788L1.4781 7.90887C1.41375 7.84326 1.36823 7.76009 1.34669 7.66878C1.32514 7.57746 1.32844 7.48165 1.3562 7.3922C1.38396 7.30275 1.43508 7.22322 1.50376 7.16264C1.57245 7.10205 1.65596 7.06283 1.74483 7.0494L5.76832 6.43299L7.56773 2.61449C7.60753 2.53013 7.66905 2.45911 7.74533 2.40943C7.82162 2.35975 7.90964 2.33339 7.99946 2.33333C8.08929 2.33327 8.17734 2.3595 8.25369 2.40907C8.33004 2.45864 8.39165 2.52958 8.43156 2.61388Z" fill="#FFC400"/>
</g>
<g clip-path="url(#clip1_12930_128359)">
<path d="M24.4316 2.61388L26.231 6.43238L30.2545 7.04577C30.3433 7.05919 30.4268 7.09842 30.4955 7.159C30.5642 7.21959 30.6153 7.29911 30.6431 7.38856C30.6708 7.47802 30.6741 7.57383 30.6526 7.66514C30.6311 7.75646 30.5855 7.83963 30.5212 7.90523L27.6092 10.8752L28.2965 15.0731C28.3117 15.1658 28.3018 15.2611 28.2679 15.3483C28.2341 15.4354 28.1777 15.5109 28.105 15.5662C28.0324 15.6215 27.9464 15.6544 27.8568 15.6612C27.7673 15.668 27.6777 15.6484 27.5982 15.6047L23.9999 13.6257L20.4011 15.6065C20.3216 15.65 20.232 15.6695 20.1424 15.6625C20.0529 15.6556 19.967 15.6226 19.8944 15.5673C19.8218 15.512 19.7654 15.4365 19.7315 15.3494C19.6977 15.2623 19.6877 15.167 19.7028 15.0743L20.3901 10.8788L17.4781 7.90887C17.4138 7.84326 17.3682 7.76009 17.3467 7.66878C17.3251 7.57746 17.3284 7.48165 17.3562 7.3922C17.384 7.30275 17.4351 7.22322 17.5038 7.16264C17.5724 7.10205 17.656 7.06283 17.7448 7.0494L21.7683 6.43299L23.5677 2.61449C23.6075 2.53013 23.669 2.45911 23.7453 2.40943C23.8216 2.35975 23.9096 2.33339 23.9995 2.33333C24.0893 2.33327 24.1773 2.3595 24.2537 2.40907C24.33 2.45864 24.3916 2.52958 24.4316 2.61388Z" fill="#FFC400"/>
</g>
<g clip-path="url(#clip2_12930_128359)">
<path d="M40.4316 2.61388L42.231 6.43238L46.2545 7.04577C46.3433 7.05919 46.4268 7.09842 46.4955 7.159C46.5642 7.21959 46.6153 7.29911 46.6431 7.38856C46.6708 7.47802 46.6741 7.57383 46.6526 7.66514C46.6311 7.75646 46.5855 7.83963 46.5212 7.90523L43.6092 10.8752L44.2965 15.0731C44.3117 15.1658 44.3018 15.2611 44.2679 15.3483C44.2341 15.4354 44.1777 15.5109 44.105 15.5662C44.0324 15.6215 43.9464 15.6544 43.8568 15.6612C43.7673 15.668 43.6777 15.6484 43.5982 15.6047L39.9999 13.6257L36.4011 15.6065C36.3216 15.65 36.232 15.6695 36.1424 15.6625C36.0529 15.6556 35.967 15.6226 35.8944 15.5673C35.8218 15.512 35.7654 15.4365 35.7315 15.3494C35.6977 15.2623 35.6877 15.167 35.7028 15.0743L36.3901 10.8788L33.4781 7.90887C33.4138 7.84326 33.3682 7.76009 33.3467 7.66878C33.3251 7.57746 33.3284 7.48165 33.3562 7.3922C33.384 7.30275 33.4351 7.22322 33.5038 7.16264C33.5724 7.10205 33.656 7.06283 33.7448 7.0494L37.7683 6.43299L39.5677 2.61449C39.6075 2.53013 39.669 2.45911 39.7453 2.40943C39.8216 2.35975 39.9096 2.33339 39.9995 2.33333C40.0893 2.33327 40.1773 2.3595 40.2537 2.40907C40.33 2.45864 40.3916 2.52958 40.4316 2.61388Z" fill="#FFC400"/>
</g>
<g clip-path="url(#clip3_12930_128359)">
<path d="M56.4316 2.61388L58.231 6.43238L62.2545 7.04577C62.3433 7.05919 62.4268 7.09842 62.4955 7.159C62.5642 7.21959 62.6153 7.29911 62.6431 7.38856C62.6708 7.47802 62.6741 7.57383 62.6526 7.66514C62.6311 7.75646 62.5855 7.83963 62.5212 7.90523L59.6092 10.8752L60.2965 15.0731C60.3117 15.1658 60.3018 15.2611 60.2679 15.3483C60.2341 15.4354 60.1777 15.5109 60.105 15.5662C60.0324 15.6215 59.9464 15.6544 59.8568 15.6612C59.7673 15.668 59.6777 15.6484 59.5982 15.6047L55.9999 13.6257L52.4011 15.6065C52.3216 15.65 52.232 15.6695 52.1424 15.6625C52.0529 15.6556 51.967 15.6226 51.8944 15.5673C51.8218 15.512 51.7654 15.4365 51.7315 15.3494C51.6977 15.2623 51.6877 15.167 51.7028 15.0743L52.3901 10.8788L49.4781 7.90887C49.4138 7.84326 49.3682 7.76009 49.3467 7.66878C49.3251 7.57746 49.3284 7.48165 49.3562 7.3922C49.384 7.30275 49.4351 7.22322 49.5038 7.16264C49.5724 7.10205 49.656 7.06283 49.7448 7.0494L53.7683 6.43299L55.5677 2.61449C55.6075 2.53013 55.669 2.45911 55.7453 2.40943C55.8216 2.35975 55.9096 2.33339 55.9995 2.33333C56.0893 2.33327 56.1773 2.3595 56.2537 2.40907C56.33 2.45864 56.3916 2.52958 56.4316 2.61388Z" fill="#FFC400"/>
</g>
<g clip-path="url(#clip4_12930_128359)">
<path d="M72.4316 2.61388L74.231 6.43238L78.2545 7.04577C78.3433 7.05919 78.4268 7.09842 78.4955 7.159C78.5642 7.21959 78.6153 7.29911 78.6431 7.38856C78.6708 7.47802 78.6741 7.57383 78.6526 7.66514C78.6311 7.75646 78.5855 7.83963 78.5212 7.90523L75.6092 10.8752L76.2965 15.0731C76.3117 15.1658 76.3018 15.2611 76.2679 15.3483C76.2341 15.4354 76.1777 15.5109 76.105 15.5662C76.0324 15.6215 75.9464 15.6544 75.8568 15.6612C75.7673 15.668 75.6777 15.6484 75.5982 15.6047L71.9999 13.6257L68.4011 15.6065C68.3216 15.65 68.232 15.6695 68.1424 15.6625C68.0529 15.6556 67.967 15.6226 67.8944 15.5673C67.8218 15.512 67.7654 15.4365 67.7315 15.3494C67.6977 15.2623 67.6877 15.167 67.7028 15.0743L68.3901 10.8788L65.4781 7.90887C65.4138 7.84326 65.3682 7.76009 65.3467 7.66878C65.3251 7.57746 65.3284 7.48165 65.3562 7.3922C65.384 7.30275 65.4351 7.22322 65.5038 7.16264C65.5724 7.10205 65.656 7.06283 65.7448 7.0494L69.7683 6.43299L71.5677 2.61449C71.6075 2.53013 71.669 2.45911 71.7453 2.40943C71.8216 2.35975 71.9096 2.33339 71.9995 2.33333C72.0893 2.33327 72.1773 2.3595 72.2537 2.40907C72.33 2.45864 72.3916 2.52958 72.4316 2.61388Z" fill="#DDDDE3"/>
</g>
<mask id="mask0_12930_128359" style="mask-type:alpha" maskUnits="userSpaceOnUse" x="64" y="1" width="8" height="16">
<rect x="64" y="1" width="8" height="16" fill="#FFC400"/>
</mask>
<g mask="url(#mask0_12930_128359)">
<g clip-path="url(#clip5_12930_128359)">
<path d="M72.4316 2.61383L74.231 6.43233L78.2545 7.04572C78.3433 7.05914 78.4268 7.09837 78.4955 7.15896C78.5642 7.21954 78.6153 7.29906 78.6431 7.38852C78.6708 7.47797 78.6741 7.57378 78.6526 7.6651C78.6311 7.75641 78.5855 7.83958 78.5212 7.90519L75.6092 10.8751L76.2965 15.0731C76.3117 15.1658 76.3018 15.2611 76.2679 15.3482C76.2341 15.4354 76.1777 15.5109 76.105 15.5662C76.0324 15.6215 75.9464 15.6544 75.8568 15.6612C75.7673 15.668 75.6777 15.6484 75.5982 15.6046L71.9999 13.6257L68.4011 15.6064C68.3216 15.65 68.232 15.6694 68.1424 15.6625C68.0529 15.6556 67.967 15.6226 67.8944 15.5673C67.8218 15.5119 67.7654 15.4365 67.7315 15.3494C67.6977 15.2623 67.6877 15.167 67.7028 15.0743L68.3901 10.8788L65.4781 7.90882C65.4138 7.84322 65.3682 7.76005 65.3467 7.66873C65.3251 7.57742 65.3284 7.48161 65.3562 7.39215C65.384 7.3027 65.4351 7.22318 65.5038 7.16259C65.5724 7.10201 65.656 7.06278 65.7448 7.04936L69.7683 6.43294L71.5677 2.61444C71.6075 2.53008 71.669 2.45906 71.7453 2.40938C71.8216 2.3597 71.9096 2.33335 71.9995 2.33328C72.0893 2.33322 72.1773 2.35945 72.2537 2.40903C72.33 2.4586 72.3916 2.52953 72.4316 2.61383Z" fill="#FFC400"/>
</g>
</g>
<path d="M88.5753 11.4659V10.0128L92.2188 4.27273H93.4716V6.28409H92.7301L90.4332 9.91903V9.98722H95.6108V11.4659H88.5753ZM92.7642 13V11.0227L92.7983 10.3793V4.27273H94.5284V13H92.7642ZM97.7543 13.1108C97.473 13.1108 97.2315 13.0114 97.0298 12.8125C96.831 12.6108 96.7315 12.3693 96.7315 12.0881C96.7315 11.8097 96.831 11.571 97.0298 11.3722C97.2315 11.1733 97.473 11.0739 97.7543 11.0739C98.027 11.0739 98.2656 11.1733 98.4702 11.3722C98.6747 11.571 98.777 11.8097 98.777 12.0881C98.777 12.2756 98.7287 12.4474 98.6321 12.6037C98.5384 12.7571 98.4148 12.8807 98.2614 12.9744C98.108 13.0653 97.9389 13.1108 97.7543 13.1108ZM103.368 13.1193C102.765 13.1193 102.228 13.0085 101.757 12.7869C101.288 12.5653 100.916 12.2599 100.64 11.8707C100.365 11.4815 100.221 11.0355 100.21 10.5327H102C102.02 10.8707 102.162 11.1449 102.426 11.3551C102.69 11.5653 103.004 11.6705 103.368 11.6705C103.657 11.6705 103.913 11.6065 104.135 11.4787C104.359 11.348 104.534 11.1676 104.659 10.9375C104.787 10.7045 104.85 10.4375 104.85 10.1364C104.85 9.82955 104.785 9.55966 104.654 9.3267C104.527 9.09375 104.349 8.91193 104.122 8.78125C103.895 8.65057 103.635 8.58381 103.342 8.58097C103.086 8.58097 102.838 8.63352 102.596 8.73864C102.358 8.84375 102.172 8.98722 102.038 9.16903L100.397 8.875L100.811 4.27273H106.146V5.78125H102.332L102.106 7.96733H102.157C102.311 7.75142 102.542 7.57244 102.852 7.4304C103.162 7.28835 103.508 7.21733 103.892 7.21733C104.417 7.21733 104.886 7.34091 105.298 7.58807C105.71 7.83523 106.035 8.17472 106.274 8.60653C106.512 9.03551 106.63 9.52983 106.627 10.0895C106.63 10.6776 106.494 11.2003 106.218 11.6577C105.946 12.1122 105.564 12.4702 105.072 12.7315C104.583 12.9901 104.015 13.1193 103.368 13.1193ZM111.213 3.86364L108.4 14.3125H107.48L110.292 3.86364H111.213ZM115.115 13.1193C114.615 13.1193 114.165 13.0199 113.764 12.821C113.364 12.6222 113.043 12.3494 112.801 12.0028C112.56 11.6562 112.428 11.2614 112.405 10.8182H113.428C113.467 11.2131 113.646 11.5398 113.964 11.7983C114.286 12.054 114.669 12.1818 115.115 12.1818C115.473 12.1818 115.791 12.098 116.07 11.9304C116.351 11.7628 116.571 11.5327 116.73 11.2401C116.892 10.9446 116.973 10.6108 116.973 10.2386C116.973 9.85795 116.889 9.51847 116.722 9.22017C116.557 8.91903 116.33 8.68182 116.04 8.50852C115.75 8.33523 115.419 8.24716 115.047 8.24432C114.78 8.24148 114.506 8.28267 114.224 8.3679C113.943 8.45028 113.712 8.55682 113.53 8.6875L112.541 8.56818L113.07 4.27273H117.604V5.21023H113.956L113.649 7.78409H113.7C113.879 7.64205 114.104 7.52415 114.374 7.4304C114.643 7.33665 114.925 7.28977 115.217 7.28977C115.751 7.28977 116.227 7.41761 116.645 7.6733C117.065 7.92614 117.395 8.27273 117.634 8.71307C117.875 9.15341 117.996 9.65625 117.996 10.2216C117.996 10.7784 117.871 11.2756 117.621 11.7131C117.374 12.1477 117.033 12.4915 116.598 12.7443C116.163 12.9943 115.669 13.1193 115.115 13.1193ZM120.11 13.0682C119.9 13.0682 119.72 12.9929 119.569 12.8423C119.419 12.6918 119.343 12.5114 119.343 12.3011C119.343 12.0909 119.419 11.9105 119.569 11.7599C119.72 11.6094 119.9 11.5341 120.11 11.5341C120.321 11.5341 120.501 11.6094 120.652 11.7599C120.802 11.9105 120.877 12.0909 120.877 12.3011C120.877 12.4403 120.842 12.5682 120.771 12.6847C120.703 12.8011 120.61 12.8949 120.494 12.9659C120.38 13.0341 120.252 13.0682 120.11 13.0682ZM125.207 13.1193C124.565 13.1193 124.018 12.9446 123.566 12.5952C123.115 12.2429 122.77 11.733 122.531 11.0653C122.292 10.3949 122.173 9.58523 122.173 8.63636C122.173 7.69318 122.292 6.88778 122.531 6.22017C122.772 5.54972 123.119 5.03835 123.571 4.68608C124.025 4.33097 124.571 4.15341 125.207 4.15341C125.843 4.15341 126.387 4.33097 126.839 4.68608C127.294 5.03835 127.64 5.54972 127.879 6.22017C128.12 6.88778 128.241 7.69318 128.241 8.63636C128.241 9.58523 128.122 10.3949 127.883 11.0653C127.645 11.733 127.299 12.2429 126.848 12.5952C126.396 12.9446 125.849 13.1193 125.207 13.1193ZM125.207 12.1818C125.843 12.1818 126.338 11.875 126.69 11.2614C127.042 10.6477 127.218 9.77273 127.218 8.63636C127.218 7.88068 127.137 7.23722 126.975 6.70597C126.816 6.17472 126.586 5.76989 126.285 5.49148C125.987 5.21307 125.627 5.07386 125.207 5.07386C124.576 5.07386 124.083 5.38494 123.728 6.0071C123.373 6.62642 123.196 7.50284 123.196 8.63636C123.196 9.39205 123.275 10.0341 123.434 10.5625C123.593 11.0909 123.822 11.4929 124.12 11.7685C124.422 12.044 124.784 12.1818 125.207 12.1818Z" fill="#27272A"/>
<defs>
<clipPath id="clip0_12930_128359">
<rect width="13.334" height="13.3306" fill="white" transform="translate(1.33264 2.33333)"/>
</clipPath>
<clipPath id="clip1_12930_128359">
<rect width="13.334" height="13.3306" fill="white" transform="translate(17.3326 2.33333)"/>
</clipPath>
<clipPath id="clip2_12930_128359">
<rect width="13.334" height="13.3306" fill="white" transform="translate(33.3326 2.33333)"/>
</clipPath>
<clipPath id="clip3_12930_128359">
<rect width="13.334" height="13.3306" fill="white" transform="translate(49.3326 2.33333)"/>
</clipPath>
<clipPath id="clip4_12930_128359">
<rect width="13.334" height="13.3306" fill="white" transform="translate(65.3326 2.33333)"/>
</clipPath>
<clipPath id="clip5_12930_128359">
<rect width="13.334" height="13.3306" fill="white" transform="translate(65.3326 2.33328)"/>
</clipPath>
</defs>
</svg>
