<svg width="232" height="40" viewBox="0 0 232 40" fill="none" xmlns="http://www.w3.org/2000/svg">
<g clip-path="url(#clip0_12931_128768)">
<path d="M21.079 4.03475L25.5775 13.581L35.6362 15.1145C35.8584 15.148 36.0672 15.2461 36.2389 15.3976C36.4106 15.549 36.5384 15.7478 36.6078 15.9715C36.6772 16.1951 36.6854 16.4346 36.6316 16.6629C36.5777 16.8912 36.4639 17.0991 36.303 17.2631L29.023 24.688L30.7414 35.1828C30.7793 35.4146 30.7545 35.6529 30.6699 35.8708C30.5853 36.0886 30.4442 36.2773 30.2626 36.4156C30.081 36.5538 29.866 36.6361 29.6421 36.6531C29.4182 36.6701 29.1942 36.6211 28.9955 36.5117L19.9999 31.5643L11.0029 36.5163C10.8039 36.6252 10.58 36.6737 10.3561 36.6564C10.1323 36.6391 9.91752 36.5566 9.73602 36.4183C9.55452 36.28 9.41351 36.0913 9.32887 35.8736C9.24423 35.6558 9.21933 35.4176 9.25698 35.1858L10.9754 24.6971L3.69531 17.2722C3.53445 17.1082 3.42064 16.9003 3.36678 16.672C3.31292 16.4437 3.32116 16.2042 3.39056 15.9806C3.45996 15.7569 3.58776 15.5581 3.75947 15.4066C3.93118 15.2552 4.13995 15.1571 4.36213 15.1236L14.4209 13.5825L18.9194 4.03627C19.0189 3.82538 19.1727 3.64782 19.3634 3.52362C19.5541 3.39943 19.7742 3.33353 19.9987 3.33337C20.2233 3.33322 20.4434 3.3988 20.6343 3.52273C20.8252 3.64666 20.9792 3.824 21.079 4.03475V4.03475Z" fill="#FFC400"/>
</g>
<g clip-path="url(#clip1_12931_128768)">
<path d="M69.079 4.03475L73.5775 13.581L83.6362 15.1145C83.8584 15.148 84.0672 15.2461 84.2389 15.3976C84.4106 15.549 84.5384 15.7478 84.6078 15.9715C84.6772 16.1951 84.6854 16.4346 84.6316 16.6629C84.5777 16.8912 84.4639 17.0991 84.303 17.2631L77.023 24.688L78.7414 35.1828C78.7793 35.4146 78.7545 35.6529 78.6699 35.8708C78.5853 36.0886 78.4442 36.2773 78.2626 36.4156C78.081 36.5538 77.866 36.6361 77.6421 36.6531C77.4182 36.6701 77.1942 36.6211 76.9955 36.5117L67.9999 31.5643L59.0029 36.5163C58.8039 36.6252 58.58 36.6737 58.3561 36.6564C58.1323 36.6391 57.9175 36.5566 57.736 36.4183C57.5545 36.28 57.4135 36.0913 57.3289 35.8736C57.2442 35.6558 57.2193 35.4176 57.257 35.1858L58.9754 24.6971L51.6953 17.2722C51.5344 17.1082 51.4206 16.9003 51.3668 16.672C51.3129 16.4437 51.3212 16.2042 51.3906 15.9806C51.46 15.7569 51.5878 15.5581 51.7595 15.4066C51.9312 15.2552 52.14 15.1571 52.3621 15.1236L62.4209 13.5825L66.9194 4.03627C67.0189 3.82538 67.1727 3.64782 67.3634 3.52362C67.5541 3.39943 67.7742 3.33353 67.9987 3.33337C68.2233 3.33322 68.4434 3.3988 68.6343 3.52273C68.8252 3.64666 68.9792 3.824 69.079 4.03475V4.03475Z" fill="#FFC400"/>
</g>
<g clip-path="url(#clip2_12931_128768)">
<path d="M117.079 4.03475L121.577 13.581L131.636 15.1145C131.858 15.148 132.067 15.2461 132.239 15.3976C132.411 15.549 132.538 15.7478 132.608 15.9715C132.677 16.1951 132.685 16.4346 132.632 16.6629C132.578 16.8912 132.464 17.0991 132.303 17.2631L125.023 24.688L126.741 35.1828C126.779 35.4146 126.755 35.6529 126.67 35.8708C126.585 36.0886 126.444 36.2773 126.263 36.4156C126.081 36.5538 125.866 36.6361 125.642 36.6531C125.418 36.6701 125.194 36.6211 124.995 36.5117L116 31.5643L107.003 36.5163C106.804 36.6252 106.58 36.6737 106.356 36.6564C106.132 36.6391 105.918 36.5566 105.736 36.4183C105.555 36.28 105.414 36.0913 105.329 35.8736C105.244 35.6558 105.219 35.4176 105.257 35.1858L106.975 24.6971L99.6953 17.2722C99.5344 17.1082 99.4206 16.9003 99.3668 16.672C99.3129 16.4437 99.3212 16.2042 99.3906 15.9806C99.46 15.7569 99.5878 15.5581 99.7595 15.4066C99.9312 15.2552 100.14 15.1571 100.362 15.1236L110.421 13.5825L114.919 4.03627C115.019 3.82538 115.173 3.64782 115.363 3.52362C115.554 3.39943 115.774 3.33353 115.999 3.33337C116.223 3.33322 116.443 3.3988 116.634 3.52273C116.825 3.64666 116.979 3.824 117.079 4.03475V4.03475Z" fill="#FFC400"/>
</g>
<g clip-path="url(#clip3_12931_128768)">
<path d="M165.079 4.03475L169.577 13.581L179.636 15.1145C179.858 15.148 180.067 15.2461 180.239 15.3976C180.411 15.549 180.538 15.7478 180.608 15.9715C180.677 16.1951 180.685 16.4346 180.632 16.6629C180.578 16.8912 180.464 17.0991 180.303 17.2631L173.023 24.688L174.741 35.1828C174.779 35.4146 174.755 35.6529 174.67 35.8708C174.585 36.0886 174.444 36.2773 174.263 36.4156C174.081 36.5538 173.866 36.6361 173.642 36.6531C173.418 36.6701 173.194 36.6211 172.995 36.5117L164 31.5643L155.003 36.5163C154.804 36.6252 154.58 36.6737 154.356 36.6564C154.132 36.6391 153.918 36.5566 153.736 36.4183C153.555 36.28 153.414 36.0913 153.329 35.8736C153.244 35.6558 153.219 35.4176 153.257 35.1858L154.975 24.6971L147.695 17.2722C147.534 17.1082 147.421 16.9003 147.367 16.672C147.313 16.4437 147.321 16.2042 147.391 15.9806C147.46 15.7569 147.588 15.5581 147.759 15.4066C147.931 15.2552 148.14 15.1571 148.362 15.1236L158.421 13.5825L162.919 4.03627C163.019 3.82538 163.173 3.64782 163.363 3.52362C163.554 3.39943 163.774 3.33353 163.999 3.33337C164.223 3.33322 164.443 3.3988 164.634 3.52273C164.825 3.64666 164.979 3.824 165.079 4.03475V4.03475Z" fill="#FFC400"/>
</g>
<g clip-path="url(#clip4_12931_128768)">
<path d="M213.079 4.03475L217.577 13.581L227.636 15.1145C227.858 15.148 228.067 15.2461 228.239 15.3976C228.411 15.549 228.538 15.7478 228.608 15.9715C228.677 16.1951 228.685 16.4346 228.632 16.6629C228.578 16.8912 228.464 17.0991 228.303 17.2631L221.023 24.688L222.741 35.1828C222.779 35.4146 222.755 35.6529 222.67 35.8708C222.585 36.0886 222.444 36.2773 222.263 36.4156C222.081 36.5538 221.866 36.6361 221.642 36.6531C221.418 36.6701 221.194 36.6211 220.995 36.5117L212 31.5643L203.003 36.5163C202.804 36.6252 202.58 36.6737 202.356 36.6564C202.132 36.6391 201.918 36.5566 201.736 36.4183C201.555 36.28 201.414 36.0913 201.329 35.8736C201.244 35.6558 201.219 35.4176 201.257 35.1858L202.975 24.6971L195.695 17.2722C195.534 17.1082 195.421 16.9003 195.367 16.672C195.313 16.4437 195.321 16.2042 195.391 15.9806C195.46 15.7569 195.588 15.5581 195.759 15.4066C195.931 15.2552 196.14 15.1571 196.362 15.1236L206.421 13.5825L210.919 4.03627C211.019 3.82538 211.173 3.64782 211.363 3.52362C211.554 3.39943 211.774 3.33353 211.999 3.33337C212.223 3.33322 212.443 3.3988 212.634 3.52273C212.825 3.64666 212.979 3.824 213.079 4.03475V4.03475Z" fill="#DDDDE3"/>
</g>
<mask id="mask0_12931_128768" style="mask-type:alpha" maskUnits="userSpaceOnUse" x="192" y="0" width="20" height="40">
<rect x="192" width="20" height="40" fill="#FFC400"/>
</mask>
<g mask="url(#mask0_12931_128768)">
<g clip-path="url(#clip5_12931_128768)">
<path d="M213.079 4.03475L217.577 13.581L227.636 15.1145C227.858 15.148 228.067 15.2461 228.239 15.3976C228.411 15.549 228.538 15.7478 228.608 15.9715C228.677 16.1951 228.685 16.4346 228.632 16.6629C228.578 16.8912 228.464 17.0991 228.303 17.2631L221.023 24.688L222.741 35.1828C222.779 35.4146 222.755 35.6529 222.67 35.8708C222.585 36.0886 222.444 36.2773 222.263 36.4156C222.081 36.5538 221.866 36.6361 221.642 36.6531C221.418 36.6701 221.194 36.6211 220.995 36.5117L212 31.5643L203.003 36.5163C202.804 36.6252 202.58 36.6737 202.356 36.6564C202.132 36.6391 201.918 36.5566 201.736 36.4183C201.555 36.28 201.414 36.0913 201.329 35.8736C201.244 35.6558 201.219 35.4176 201.257 35.1858L202.975 24.6971L195.695 17.2722C195.534 17.1082 195.421 16.9003 195.367 16.672C195.313 16.4437 195.321 16.2042 195.391 15.9806C195.46 15.7569 195.588 15.5581 195.759 15.4066C195.931 15.2552 196.14 15.1571 196.362 15.1236L206.421 13.5825L210.919 4.03627C211.019 3.82538 211.173 3.64782 211.363 3.52362C211.554 3.39943 211.774 3.33353 211.999 3.33337C212.223 3.33322 212.443 3.3988 212.634 3.52273C212.825 3.64666 212.979 3.824 213.079 4.03475V4.03475Z" fill="#FFC400"/>
</g>
</g>
<defs>
<clipPath id="clip0_12931_128768">
<rect width="33.335" height="33.3264" fill="white" transform="translate(3.33167 3.33337)"/>
</clipPath>
<clipPath id="clip1_12931_128768">
<rect width="33.335" height="33.3264" fill="white" transform="translate(51.3317 3.33337)"/>
</clipPath>
<clipPath id="clip2_12931_128768">
<rect width="33.335" height="33.3264" fill="white" transform="translate(99.3317 3.33337)"/>
</clipPath>
<clipPath id="clip3_12931_128768">
<rect width="33.335" height="33.3264" fill="white" transform="translate(147.332 3.33337)"/>
</clipPath>
<clipPath id="clip4_12931_128768">
<rect width="33.335" height="33.3264" fill="white" transform="translate(195.332 3.33337)"/>
</clipPath>
<clipPath id="clip5_12931_128768">
<rect width="33.335" height="33.3264" fill="white" transform="translate(195.332 3.33337)"/>
</clipPath>
</defs>
</svg>
