<svg width="24" height="24" viewBox="0 0 24 24" fill="none" xmlns="http://www.w3.org/2000/svg">
<path fill-rule="evenodd" clip-rule="evenodd" d="M9.54546 2C9.09451 2 8.69935 2.30182 8.58069 2.73688L6.32712 11H3C2.44772 11 2 11.4477 2 12V21C2 21.5523 2.44772 22 3 22H17.2587C18.0833 21.9991 18.8803 21.7034 19.5059 21.1661C20.1314 20.6289 20.5441 19.8855 20.6695 19.0705L21.5507 13.3433C21.6264 12.851 21.5947 12.3482 21.4579 11.8693C21.3211 11.3904 21.0824 10.9468 20.7581 10.5688C20.4338 10.1908 20.0316 9.88741 19.5791 9.67939C19.1266 9.47137 18.6344 9.36366 18.1364 9.36364H13V5.45455C13 4.53834 12.636 3.65967 11.9882 3.01181C11.3403 2.36396 10.4617 2 9.54546 2ZM6.09091 20V13H4V20H6.09091ZM8.09091 12.1339L10.2583 4.18667C10.373 4.25113 10.4793 4.33138 10.574 4.42603C10.8468 4.69881 11 5.06878 11 5.45455V10.3636C11 10.9159 11.4477 11.3636 12 11.3636H18.1364C18.3461 11.3637 18.5533 11.409 18.7438 11.4966C18.9343 11.5842 19.1037 11.7119 19.2402 11.8711C19.3767 12.0302 19.4773 12.217 19.5349 12.4187C19.5924 12.6203 19.6058 12.832 19.5739 13.0393L18.6927 18.7665C18.6399 19.1097 18.4662 19.4227 18.2028 19.6489C17.9394 19.8751 17.6038 19.9996 17.2566 20H8.09091V12.1339Z" fill="#5CB3FF"/>
</svg>
