<svg width="24" height="24" viewBox="0 0 24 24" fill="none" xmlns="http://www.w3.org/2000/svg">
<path d="M9.06304 2.86844C9.12237 2.65091 9.31995 2.5 9.54543 2.5C10.329 2.5 11.0805 2.81128 11.6346 3.36537C12.1887 3.91945 12.5 4.67095 12.5 5.45455V9.36364C12.5 9.63978 12.7238 9.86364 13 9.86364H18.1363C18.5623 9.86366 18.9832 9.95578 19.3703 10.1337C19.7573 10.3116 20.1013 10.5711 20.3786 10.8944C20.656 11.2177 20.8601 11.5971 20.9771 12.0067C21.0941 12.4162 21.1212 12.8463 21.0564 13.2673L20.1753 18.9945C20.068 19.6916 19.715 20.3273 19.1801 20.7868C18.6451 21.2463 17.9634 21.4993 17.2581 21.5H7.09088C6.81474 21.5 6.59088 21.2761 6.59088 21V12C6.59088 11.9556 6.59681 11.9113 6.6085 11.8684L9.06304 2.86844Z" fill="#27272A"/>
<path d="M2.5 12C2.5 11.7239 2.72386 11.5 3 11.5H5C5.27614 11.5 5.5 11.7239 5.5 12V21C5.5 21.2761 5.27614 21.5 5 21.5H3C2.72386 21.5 2.5 21.2761 2.5 21V12Z" fill="#27272A"/>
</svg>
