<svg width="24" height="24" viewBox="0 0 24 24" fill="none" xmlns="http://www.w3.org/2000/svg">
<g clip-path="url(#clip0_12941_36207)">
<path fill-rule="evenodd" clip-rule="evenodd" d="M4.61784 3.45233C4.80259 3.17008 5.1172 3 5.45453 3H18.5454C18.8828 3 19.1974 3.17008 19.3821 3.45233L21.8367 7.20221C21.9428 7.3643 21.9995 7.55371 22 7.74744C22.0018 8.50255 21.7246 9.22408 21.2326 9.79619C20.7422 10.3664 20.0689 10.7543 19.331 10.9151C19.2214 10.939 19.1109 10.9577 19 10.9714V20C19 20.5523 18.5523 21 18 21H5.99998C5.4477 21 4.99998 20.5523 4.99998 20V10.9714C4.88907 10.9577 4.77861 10.939 4.669 10.9151C3.93103 10.7543 3.25782 10.3664 2.76737 9.79619C2.27533 9.22407 1.99815 8.50255 1.99999 7.74744C2.00047 7.55371 2.0572 7.3643 2.1633 7.20221L4.61784 3.45233ZM11 19H13V16H11V19ZM15 19V15C15 14.4477 14.5523 14 14 14H9.99998C9.4477 14 8.99998 14.4477 8.99998 15V19H6.99998V10.6521C7.22584 10.5451 7.43875 10.4149 7.63462 10.2638C7.76289 10.3631 7.89862 10.4535 8.04071 10.5343C8.58034 10.841 9.19571 11 9.8183 11C10.4409 11 11.0563 10.841 11.5959 10.5343C11.7373 10.4539 11.8723 10.3641 12 10.2654C12.1277 10.3641 12.2627 10.4539 12.4041 10.5343C12.9437 10.841 13.5591 11 14.1817 11C14.8043 11 15.4196 10.841 15.9593 10.5343C16.1014 10.4535 16.2371 10.3631 16.3653 10.2638C16.5612 10.4149 16.7741 10.5451 17 10.6521V19H15ZM5.99515 5L4.02944 8.00308C4.07054 8.17484 4.15488 8.34228 4.28371 8.49207C4.47645 8.71617 4.75914 8.88781 5.09477 8.96094C5.43071 9.03413 5.78289 9.00019 6.08971 8.86899C6.3958 8.73811 6.62576 8.5245 6.75916 8.28047C6.93485 7.95903 7.27224 7.75939 7.63856 7.7601C8.00488 7.76081 8.3415 7.96176 8.51595 8.28387C8.62422 8.4838 8.79811 8.6643 9.02891 8.79547C9.26018 8.9269 9.53385 9 9.8183 9C10.1028 9 10.3764 8.9269 10.6077 8.79547C10.8385 8.6643 11.0124 8.4838 11.1207 8.28387C11.2954 7.96115 11.633 7.7601 12 7.7601C12.367 7.7601 12.7045 7.96115 12.8793 8.28387C12.9876 8.4838 13.1615 8.6643 13.3923 8.79547C13.6235 8.9269 13.8972 9 14.1817 9C14.4661 9 14.7398 8.9269 14.9711 8.79547C15.2019 8.6643 15.3757 8.4838 15.484 8.28387C15.6585 7.96176 15.9951 7.76081 16.3614 7.7601C16.7277 7.75939 17.0651 7.95903 17.2408 8.28047C17.3742 8.5245 17.6042 8.73811 17.9103 8.86899C18.2171 9.00019 18.5693 9.03413 18.9052 8.96094C19.2408 8.88781 19.5235 8.71618 19.7163 8.49207C19.8451 8.34228 19.9294 8.17484 19.9705 8.00308L18.0048 5H5.99515Z" fill="#808089"/>
</g>
<defs>
<clipPath id="clip0_12941_36207">
<rect width="20" height="20" fill="white" transform="translate(1.99999 2)"/>
</clipPath>
</defs>
</svg>
