<svg width="24" height="24" viewBox="0 0 24 24" fill="none" xmlns="http://www.w3.org/2000/svg">
<path fill-rule="evenodd" clip-rule="evenodd" d="M12.0002 2.4C8.68649 2.4 6.0002 5.08629 6.0002 8.4C6.0002 11.7137 8.68649 14.4 12.0002 14.4C15.3139 14.4 18.0002 11.7137 18.0002 8.4C18.0002 5.08629 15.3139 2.4 12.0002 2.4ZM3.6002 8.4C3.6002 3.76081 7.36101 0 12.0002 0C16.6394 0 20.4002 3.76081 20.4002 8.4C20.4002 9.8975 20.0083 11.3035 19.3216 12.521L23.0557 19.4294C23.2818 19.8478 23.2395 20.3602 22.9479 20.7358C22.6563 21.1115 22.1703 21.2795 21.709 21.1642L18.5294 20.3693L16.9985 22.6656C16.7641 23.0172 16.3622 23.2195 15.9402 23.1985C15.5183 23.1774 15.1385 22.9361 14.9403 22.563L11.8784 16.7991C11.7816 16.7978 11.6853 16.7947 11.5893 16.7901L9.09938 22.481C8.92351 22.883 8.54228 23.1569 8.10521 23.1954C7.66814 23.2338 7.24492 23.0307 7.00154 22.6656L5.47063 20.3693L2.29105 21.1642C1.84333 21.2761 1.3711 21.1214 1.07644 20.7662C0.781786 20.411 0.716919 19.9183 0.909601 19.499L4.3098 12.099C4.33284 12.0488 4.3589 12.001 4.38767 11.9557C3.88244 10.8759 3.6002 9.67091 3.6002 8.4ZM14.4101 16.4492C15.652 16.0779 16.7732 15.427 17.7007 14.5696L19.6498 18.1755L18.291 17.8358C17.7991 17.7128 17.2829 17.9124 17.0015 18.3343L16.1167 19.6617L14.4101 16.4492ZM5.9657 14.2434C6.85428 15.1608 7.9502 15.8763 9.17792 16.3141L7.78065 19.5076L6.99846 18.3343C6.71715 17.9124 6.20095 17.7128 5.70896 17.8358L4.13412 18.2295L5.9657 14.2434ZM11.1998 8.36C11.1998 7.91817 11.558 7.56 11.9998 7.56C12.4416 7.56 12.7998 7.91817 12.7998 8.36C12.7998 8.80183 12.4416 9.16 11.9998 9.16C11.558 9.16 11.1998 8.80183 11.1998 8.36ZM11.9998 5.16C10.2325 5.16 8.79981 6.59269 8.79981 8.36C8.79981 10.1273 10.2325 11.56 11.9998 11.56C13.7671 11.56 15.1998 10.1273 15.1998 8.36C15.1998 6.59269 13.7671 5.16 11.9998 5.16Z" fill="#808089"/>
</svg>
