<svg width="24" height="24" viewBox="0 0 24 24" fill="none" xmlns="http://www.w3.org/2000/svg">
<path fill-rule="evenodd" clip-rule="evenodd" d="M12.0002 4C9.23874 4 7.00016 6.23858 7.00016 9C7.00016 11.7614 9.23874 14 12.0002 14C14.7616 14 17.0002 11.7614 17.0002 9C17.0002 6.23858 14.7616 4 12.0002 4ZM5.00016 9C5.00016 5.13401 8.13417 2 12.0002 2C15.8662 2 19.0002 5.13401 19.0002 9C19.0002 10.2479 18.6736 11.4196 18.1013 12.4342L21.2131 18.1912C21.4015 18.5398 21.3663 18.9668 21.1233 19.2799C20.8802 19.5929 20.4753 19.7329 20.0908 19.6368L17.4411 18.9744L16.1654 20.888C15.9701 21.181 15.6351 21.3496 15.2835 21.3321C14.9319 21.3145 14.6154 21.1134 14.4502 20.8025L11.8987 15.9993C11.818 15.9981 11.7377 15.9956 11.6578 15.9918L9.58282 20.7342C9.43625 21.0691 9.11856 21.2974 8.75434 21.3295C8.39012 21.3615 8.03743 21.1922 7.83462 20.888L6.55886 18.9744L3.9092 19.6368C3.53611 19.7301 3.14258 19.6011 2.89704 19.3051C2.65149 19.0092 2.59743 18.5986 2.758 18.2491L5.5915 12.0825C5.6107 12.0407 5.63242 12.0009 5.65639 11.9631C5.23537 11.0632 5.00016 10.0591 5.00016 9ZM14.0084 15.7077C15.0434 15.3982 15.9777 14.8559 16.7506 14.1414L18.3748 17.1462L17.2425 16.8632C16.8325 16.7607 16.4024 16.927 16.168 17.2786L15.4305 18.3847L14.0084 15.7077ZM6.97142 13.8695C7.7119 14.634 8.62517 15.2302 9.64826 15.5951L8.48388 18.2564L7.83205 17.2786C7.59763 16.927 7.16746 16.7607 6.75747 16.8632L5.4451 17.1913L6.97142 13.8695ZM11.3332 8.96667C11.3332 8.59848 11.6316 8.3 11.9998 8.3C12.368 8.3 12.6665 8.59848 12.6665 8.96667C12.6665 9.33486 12.368 9.63334 11.9998 9.63334C11.6316 9.63334 11.3332 9.33486 11.3332 8.96667ZM11.9998 6.3C10.5271 6.3 9.33317 7.49391 9.33317 8.96667C9.33317 10.4394 10.5271 11.6333 11.9998 11.6333C13.4726 11.6333 14.6665 10.4394 14.6665 8.96667C14.6665 7.49391 13.4726 6.3 11.9998 6.3Z" fill="#1A94FF"/>
</svg>
