<svg width="20" height="20" viewBox="0 0 20 20" fill="none" xmlns="http://www.w3.org/2000/svg">
<g clip-path="url(#clip0_12941_36097)">
<path fill-rule="evenodd" clip-rule="evenodd" d="M2.61784 1.45233C2.80259 1.17008 3.1172 1 3.45453 1H16.5454C16.8828 1 17.1974 1.17008 17.3821 1.45233L19.8367 5.20221C19.9428 5.3643 19.9995 5.55371 20 5.74744C20.0018 6.50255 19.7246 7.22408 19.2326 7.79619C18.7422 8.36644 18.0689 8.7543 17.331 8.91509C17.2214 8.93897 17.1109 8.95773 17 8.97138V18C17 18.5523 16.5523 19 16 19H3.99998C3.4477 19 2.99998 18.5523 2.99998 18V8.97138C2.88907 8.95773 2.77861 8.93897 2.669 8.91509C1.93103 8.75431 1.25782 8.36644 0.767374 7.79619C0.275332 7.22407 -0.0018514 6.50255 -6.10382e-06 5.74744C0.000467276 5.55371 0.0572 5.3643 0.163297 5.20221L2.61784 1.45233ZM8.99998 17H11V14H8.99998V17ZM13 17V13C13 12.4477 12.5523 12 12 12H7.99998C7.4477 12 6.99998 12.4477 6.99998 13V17H4.99998V8.65209C5.22584 8.54509 5.43875 8.41487 5.63462 8.26384C5.76289 8.36313 5.89862 8.45352 6.04071 8.53428C6.58034 8.84096 7.19571 9 7.8183 9C8.4409 9 9.05627 8.84096 9.5959 8.53428C9.73725 8.45394 9.87231 8.36407 9.99998 8.26539C10.1277 8.36407 10.2627 8.45394 10.4041 8.53428C10.9437 8.84096 11.5591 9 12.1817 9C12.8043 9 13.4196 8.84096 13.9593 8.53428C14.1014 8.45352 14.2371 8.36313 14.3653 8.26384C14.5612 8.41487 14.7741 8.54509 15 8.65209V17H13ZM3.99515 3L2.02944 6.00308C2.07054 6.17484 2.15488 6.34228 2.28371 6.49207C2.47645 6.71617 2.75914 6.88781 3.09477 6.96094C3.43071 7.03413 3.78289 7.00019 4.08971 6.86899C4.3958 6.73811 4.62576 6.5245 4.75916 6.28047C4.93485 5.95903 5.27224 5.75939 5.63856 5.7601C6.00488 5.76081 6.3415 5.96176 6.51595 6.28387C6.62422 6.4838 6.79811 6.6643 7.02891 6.79547C7.26018 6.9269 7.53385 7 7.8183 7C8.10276 7 8.37643 6.9269 8.6077 6.79547C8.8385 6.6643 9.01239 6.4838 9.12066 6.28387C9.29545 5.96115 9.63297 5.7601 9.99998 5.7601C10.367 5.7601 10.7045 5.96115 10.8793 6.28387C10.9876 6.4838 11.1615 6.6643 11.3923 6.79547C11.6235 6.9269 11.8972 7 12.1817 7C12.4661 7 12.7398 6.9269 12.9711 6.79547C13.2019 6.6643 13.3757 6.4838 13.484 6.28387C13.6585 5.96176 13.9951 5.76081 14.3614 5.7601C14.7277 5.75939 15.0651 5.95903 15.2408 6.28047C15.3742 6.5245 15.6042 6.73811 15.9103 6.86899C16.2171 7.00019 16.5693 7.03413 16.9052 6.96094C17.2408 6.88781 17.5235 6.71618 17.7163 6.49207C17.8451 6.34228 17.9294 6.17484 17.9705 6.00308L16.0048 3H3.99515Z" fill="#1A94FF"/>
</g>
<defs>
<clipPath id="clip0_12941_36097">
<rect width="20" height="20" fill="white"/>
</clipPath>
</defs>
</svg>
